<svg width="1440" height="1024" viewBox="0 0 1440 1024" fill="none" xmlns="http://www.w3.org/2000/svg">
<g clip-path="url(#clip0)">
<rect width="1440" height="1024" fill="white"/>
<path d="M330 1H1124V513H330V1Z" fill="#C4C4C4"/>
<path d="M0 0H337V512L-72 1020.5L0 0Z" fill="#797474"/>
<path d="M1121 0H1439.5L1599.5 1072L1121 512V0Z" fill="#797474"/>
<path d="M332 508H1127.5L1575 1031.5H-89L332 508Z" fill="url(#paint0_linear)"/>
<rect x="610.5" y="-51.5" width="361" height="206" fill="#707070" stroke="black" stroke-width="7"/>
<path d="M1121.5 335V499H975V335H1121.5Z" fill="#1A1101"/>
<path d="M1047.5 364V523H998V364H1047.5Z" fill="#281B02"/>
<line x1="601" y1="162" x2="984" y2="162" stroke="black" stroke-width="12"/>
<line y1="-1.5" x2="74.0485" y2="-1.5" transform="matrix(0.811682 0.584099 -0.811682 0.584099 613.767 111.729)" stroke="black" stroke-width="3"/>
<line y1="-1.5" x2="145.503" y2="-1.5" transform="matrix(0.811682 0.584099 -0.811682 0.584099 608.176 69.809)" stroke="black" stroke-width="3"/>
<line y1="-1.5" x2="208.534" y2="-1.5" transform="matrix(0.811682 0.584099 -0.811682 0.584099 613.767 35.9355)" stroke="black" stroke-width="3"/>
<line y1="-1.5" x2="278.046" y2="-1.5" transform="matrix(0.811682 0.584099 -0.811682 0.584099 613.767 -4.25806)" stroke="black" stroke-width="3"/>
<line y1="-1.5" x2="305.85" y2="-1.5" transform="matrix(0.811682 0.584099 -0.811682 0.584099 658.45 -16.8903)" stroke="black" stroke-width="3"/>
<line y1="-1.5" x2="291.948" y2="-1.5" transform="matrix(0.811682 0.584099 -0.811682 0.584099 725.475 -14.5935)" stroke="black" stroke-width="3"/>
<line y1="-1.5" x2="236.339" y2="-1.5" transform="matrix(0.811682 0.584099 -0.811682 0.584099 776.542 -19.1871)" stroke="black" stroke-width="3"/>
<line y1="-1.5" x2="180.73" y2="-1.5" transform="matrix(0.811682 0.584099 -0.811682 0.584099 821.225 -32.9677)" stroke="black" stroke-width="3"/>
<line y1="-1.5" x2="97.3161" y2="-1.5" transform="matrix(0.811682 0.584099 -0.811682 0.584099 889.846 -16.8903)" stroke="black" stroke-width="3"/>
<line y1="-1.5" x2="41.7069" y2="-1.5" transform="matrix(0.811682 0.584099 -0.811682 0.584099 934.529 -16.8903)" stroke="black" stroke-width="3"/>
<line y1="-1.5" x2="97.3161" y2="-1.5" transform="matrix(0.811682 -0.584099 0.811682 0.584099 897.825 161.681)" stroke="black" stroke-width="3"/>
<line y1="-1.5" x2="152.925" y2="-1.5" transform="matrix(0.811682 -0.584099 0.811682 0.584099 848.354 157.414)" stroke="black" stroke-width="3"/>
<line y1="-1.5" x2="236.339" y2="-1.5" transform="matrix(0.811682 -0.584099 0.811682 0.584099 782.925 162.497)" stroke="black" stroke-width="3"/>
<line y1="-1.5" x2="278.046" y2="-1.5" transform="matrix(0.811682 -0.584099 0.811682 0.584099 731.858 150.028)" stroke="black" stroke-width="3"/>
<line y1="-1.5" x2="333.655" y2="-1.5" transform="matrix(0.811682 -0.584099 0.811682 0.584099 663.238 155.03)" stroke="black" stroke-width="3"/>
<line y1="-1.5" x2="333.655" y2="-1.5" transform="matrix(0.811682 -0.584099 0.811682 0.584099 613.767 143.546)" stroke="black" stroke-width="3"/>
<line y1="-1.5" x2="333.655" y2="-1.5" transform="matrix(0.811682 -0.584099 0.811682 0.584099 613.767 98.7587)" stroke="black" stroke-width="3"/>
<line y1="-1.5" x2="333.655" y2="-1.5" transform="matrix(0.811682 -0.584099 0.811682 0.584099 618.554 49.3781)" stroke="black" stroke-width="3"/>
<line y1="-1.5" x2="333.655" y2="-1.5" transform="matrix(0.811682 -0.584099 0.811682 0.584099 613.767 6.88776)" stroke="black" stroke-width="3"/>
<path d="M336.5 434H597.5L421.5 697H105L336.5 434Z" fill="#262525"/>
<path d="M105 697H421.5V797H109.5L105 697Z" fill="#C4C4C4"/>
<path d="M757 443L762.5 408.5V516L757 549V443Z" fill="#2C1D02"/>
<path d="M597.5 434L594.5 512L421.5 793.5V696L597.5 434Z" fill="#A3A0A0"/>
<path d="M340.795 368H591.503L414.913 626.169H107L340.795 368Z" fill="#5B5656"/>
<rect x="107" y="625.672" width="307.415" height="65.6615" fill="#5B5656"/>
<path d="M591.503 368V430.5L414.415 690.836V626.169L591.503 368Z" fill="#5B5656"/>
<path d="M609.5 395H770L762.5 434.5H591.5L609.5 395Z" fill="url(#paint1_linear)"/>
<path d="M1128 324L1299 452H1095.5L972 324H1128Z" fill="#352403"/>
<path d="M1296 465V626H1111V465H1296Z" fill="#352403"/>
<path d="M1096 460.649V622L1073 595.748V442L1096 460.649Z" fill="#352403"/>
<path d="M981 341.5V538.5L974.5 529V335L981 341.5Z" fill="url(#paint2_linear)"/>
<path d="M987.75 341.5V538.5H981L981.25 341.75L987.75 341.5Z" fill="url(#paint3_linear)"/>
<path d="M998 362.649V523.736L975 497.748L977.5 340.5L998 362.649Z" fill="#352403"/>
<path d="M1112 466V714H1095.5V466H1112Z" fill="#352403"/>
<path d="M1298.5 466V714H1282V466H1298.5Z" fill="#352403"/>
<path d="M972 324L1096 452V467.5L972 336V324Z" fill="#352403"/>
<path d="M1096 452H1299V467H1096V452Z" fill="#352403"/>
<path d="M613 445H743V488.5H613V445Z" fill="#352403"/>
<path d="M613 490.5H743V534H613V490.5Z" fill="#352403"/>
<path d="M591.5 434.5H762.434V443H591.5L591.5 434.5Z" fill="#312102"/>
<path d="M746 443H757V556H746V443Z" fill="#352403"/>
<path d="M743 443H746V534H743V443Z" fill="#181001"/>
<path d="M977 348H978V498H977V348Z" fill="#181001"/>
<path d="M1076 446H1077V596H1076V446Z" fill="#181001"/>
<path d="M994 366H995V516H994V366Z" fill="#181001"/>
<path d="M1093 464H1094V614H1093V464Z" fill="#181001"/>
<path d="M977 348.681L977.732 348L995.005 366.571L994.272 367.252L977 348.681Z" fill="#181001"/>
<path d="M1076 446.681L1076.73 446L1094 464.571L1093.27 465.252L1076 446.681Z" fill="#181001"/>
<path d="M977 423.681L977.732 423L995.005 441.571L994.272 442.252L977 423.681Z" fill="#181001"/>
<path d="M1076 521.681L1076.73 521L1094 539.571L1093.27 540.252L1076 521.681Z" fill="#181001"/>
<path d="M977 497.681L977.732 497L995.005 515.571L994.272 516.252L977 497.681Z" fill="#181001"/>
<path d="M1076 595.681L1076.73 595L1094 613.571L1093.27 614.252L1076 595.681Z" fill="#181001"/>
<path d="M610 443H613V534H610V443Z" fill="#181001"/>
<path d="M743 488V491H613V488H743Z" fill="#181001"/>
<path d="M743 443V446H613V443H743Z" fill="#181001"/>
<path d="M599 443H610V556H599V443Z" fill="#352403"/>
<path d="M762.5 434.5L770 395V403.5L762.5 443V434.5Z" fill="#231801"/>
<rect x="610" y="534" width="136" height="18" fill="url(#paint4_linear)"/>
<circle cx="678" cy="467" r="4" fill="#1F1502"/>
<ellipse cx="983.5" cy="396" rx="2.5" ry="4" fill="#1F1502"/>
<ellipse cx="983.5" cy="466" rx="2.5" ry="4" fill="#1F1502"/>
<ellipse cx="1084.5" cy="568" rx="2.5" ry="4" fill="#1F1502"/>
<ellipse cx="1083.5" cy="495" rx="2.5" ry="4" fill="#1F1502"/>
<circle cx="678" cy="513" r="4" fill="#1F1502"/>
<ellipse cx="677.5" cy="416.5" rx="29.5" ry="8.5" fill="#847D7D"/>
<ellipse cx="676" cy="412.5" rx="33" ry="10.5" fill="#847D7D"/>
<path d="M643 412L644.467 415.792L648.133 417.417L652.533 419.583L656.933 421.208L661.333 422.292L666.467 422.833H677.467H687L692.867 422.292L698 421.208L701.667 419.583L705.333 417.417L709 412.542V415.792L705.333 419.583L701.667 421.75L698 423.375L692.867 424.458L687 425H682.6H677.467H671.6H666.467L661.333 424.458L656.933 423.375L652.533 421.75L648.133 420.125L644.467 418.5L643 415.25V412Z" fill="#847D7D"/>
<rect x="674" y="382" width="6" height="30" rx="1" fill="#2D2718"/>
<path d="M636.609 385.5L648.747 324.5H706.695L717.405 385.5H636.609Z" fill="url(#paint5_linear)" stroke="#A79849"/>
<path d="M1173.5 396.356C1172.13 402.81 1166.26 407.773 1157.68 410.504C1149.11 413.229 1137.94 413.687 1126.2 411.2C1114.47 408.714 1104.45 403.764 1097.72 397.798C1090.98 391.82 1087.63 384.903 1089 378.449C1090.36 371.995 1096.23 367.032 1104.82 364.301C1113.39 361.576 1124.56 361.118 1136.29 363.605C1148.02 366.091 1158.05 371.041 1164.78 377.007C1171.52 382.985 1174.87 389.902 1173.5 396.356Z" fill="#1C1A1A"/>
<path d="M1173.5 396.356C1172.13 402.81 1166.26 407.773 1157.68 410.504C1149.11 413.229 1137.94 413.687 1126.2 411.2C1114.47 408.714 1104.45 403.764 1097.72 397.798C1090.98 391.82 1087.63 384.903 1089 378.449C1090.36 371.995 1096.23 367.032 1104.82 364.301C1113.39 361.576 1124.56 361.118 1136.29 363.605C1148.02 366.091 1158.05 371.041 1164.78 377.007C1171.52 382.985 1174.87 389.902 1173.5 396.356Z" stroke="#BBAB56"/>
<path d="M1173.5 396.356C1172.13 402.81 1166.26 407.773 1157.68 410.504C1149.11 413.229 1137.94 413.687 1126.2 411.2C1114.47 408.714 1104.45 403.764 1097.72 397.798C1090.98 391.82 1087.63 384.903 1089 378.449C1090.36 371.995 1096.23 367.032 1104.82 364.301C1113.39 361.576 1124.56 361.118 1136.29 363.605C1148.02 366.091 1158.05 371.041 1164.78 377.007C1171.52 382.985 1174.87 389.902 1173.5 396.356Z" stroke="#BBAB56"/>
<path d="M1173.5 396.356C1172.13 402.81 1166.26 407.773 1157.68 410.504C1149.11 413.229 1137.94 413.687 1126.2 411.2C1114.47 408.714 1104.45 403.764 1097.72 397.798C1090.98 391.82 1087.63 384.903 1089 378.449C1090.36 371.995 1096.23 367.032 1104.82 364.301C1113.39 361.576 1124.56 361.118 1136.29 363.605C1148.02 366.091 1158.05 371.041 1164.78 377.007C1171.52 382.985 1174.87 389.902 1173.5 396.356Z" stroke="#BBAB56"/>
<path d="M1173.5 390.352C1172.13 396.807 1166.26 401.77 1157.68 404.502C1149.11 407.228 1137.94 407.686 1126.21 405.201C1114.47 402.715 1104.45 397.767 1097.72 391.8C1090.98 385.823 1087.63 378.907 1089 372.453C1090.36 365.999 1096.23 361.035 1104.82 358.304C1113.38 355.578 1124.56 355.119 1136.29 357.604C1148.02 360.09 1158.05 365.039 1164.78 371.005C1171.52 376.982 1174.87 383.898 1173.5 390.352Z" fill="#1C1A1A"/>
<path d="M1173.5 390.352C1172.13 396.807 1166.26 401.77 1157.68 404.502C1149.11 407.228 1137.94 407.686 1126.21 405.201C1114.47 402.715 1104.45 397.767 1097.72 391.8C1090.98 385.823 1087.63 378.907 1089 372.453C1090.36 365.999 1096.23 361.035 1104.82 358.304C1113.38 355.578 1124.56 355.119 1136.29 357.604C1148.02 360.09 1158.05 365.039 1164.78 371.005C1171.52 376.982 1174.87 383.898 1173.5 390.352Z" stroke="#BBAB56"/>
<path d="M1173.5 390.352C1172.13 396.807 1166.26 401.77 1157.68 404.502C1149.11 407.228 1137.94 407.686 1126.21 405.201C1114.47 402.715 1104.45 397.767 1097.72 391.8C1090.98 385.823 1087.63 378.907 1089 372.453C1090.36 365.999 1096.23 361.035 1104.82 358.304C1113.38 355.578 1124.56 355.119 1136.29 357.604C1148.02 360.09 1158.05 365.039 1164.78 371.005C1171.52 376.982 1174.87 383.898 1173.5 390.352Z" stroke="#BBAB56"/>
<path d="M1173.5 390.352C1172.13 396.807 1166.26 401.77 1157.68 404.502C1149.11 407.228 1137.94 407.686 1126.21 405.201C1114.47 402.715 1104.45 397.767 1097.72 391.8C1090.98 385.823 1087.63 378.907 1089 372.453C1090.36 365.999 1096.23 361.035 1104.82 358.304C1113.38 355.578 1124.56 355.119 1136.29 357.604C1148.02 360.09 1158.05 365.039 1164.78 371.005C1171.52 376.982 1174.87 383.898 1173.5 390.352Z" stroke="#BBAB56"/>
<path d="M1089.57 371.493L1089.55 297.6L1096.79 276.489L1104.03 255.378L1133 234" stroke="black" stroke-width="2"/>
<path d="M1173 386.947L1173 299L1169.5 273.5L1160 251L1138.5 234.5" stroke="black" stroke-width="2"/>
<ellipse cx="1136" cy="233.5" rx="4" ry="2.5" fill="black"/>
<path d="M1103.53 394L1103.53 314.285L1106.5 292L1113 264.5L1135.5 235" stroke="black" stroke-width="2"/>
<path d="M1162 402.496L1162 312L1158.5 273L1148.5 248.715L1137.5 235" stroke="black" stroke-width="2"/>
<path d="M1144 405.5L1144 314.5L1144 278L1140.5 250.277L1136.5 234" stroke="black" stroke-width="2"/>
<path d="M1121 402.687L1121 312.191L1126 275L1133.5 249.5L1136.5 235.5" stroke="black" stroke-width="2"/>
<rect x="-46" y="-30" width="1519" height="1080" fill="black" fill-opacity="0.4"/>
</g>
<defs>
<linearGradient id="paint0_linear" x1="743" y1="508" x2="743" y2="1031.5" gradientUnits="userSpaceOnUse">
<stop stop-color="#1B202B"/>
<stop offset="0.479167" stop-color="#252C3D"/>
<stop offset="1" stop-color="#313A4F"/>
</linearGradient>
<linearGradient id="paint1_linear" x1="680.75" y1="395" x2="680.75" y2="434.5" gradientUnits="userSpaceOnUse">
<stop stop-color="#382603"/>
<stop offset="1" stop-color="#3C2803"/>
</linearGradient>
<linearGradient id="paint2_linear" x1="981.125" y1="335" x2="981.125" y2="538.5" gradientUnits="userSpaceOnUse">
<stop stop-color="#312203"/>
<stop offset="1" stop-color="#261A02"/>
</linearGradient>
<linearGradient id="paint3_linear" x1="981.125" y1="335" x2="981.125" y2="538.5" gradientUnits="userSpaceOnUse">
<stop stop-color="#312203"/>
<stop offset="1" stop-color="#261A02"/>
</linearGradient>
<linearGradient id="paint4_linear" x1="678" y1="534" x2="678" y2="552" gradientUnits="userSpaceOnUse">
<stop stop-color="#101217"/>
<stop offset="1" stop-color="#1E222E"/>
</linearGradient>
<linearGradient id="paint5_linear" x1="677" y1="324" x2="677" y2="386" gradientUnits="userSpaceOnUse">
<stop stop-color="#BBAB56"/>
<stop offset="1" stop-color="#96823B"/>
</linearGradient>
<clipPath id="clip0">
<rect width="1440" height="1024" fill="white"/>
</clipPath>
</defs>
</svg>
